Coordinates
version=1
nRows=12
nColumns=46
inDegrees=yes

Units are S.I. units (second, meters, Newtons, ...)
Angles are in degrees.

endheader
time	pelvis_tilt	pelvis_list	pelvis_rotation	pelvis_tx	pelvis_ty	pelvis_tz	bb_angle	bb_tx	bb_ty	bb_tz	hip_flexion_r	hip_adduction_r	hip_rotation_r	knee_angle_r	knee_angle_r_beta	ankle_angle_r	subtalar_angle_r	mtp_angle_r	crank_angle_r	hip_flexion_l	hip_adduction_l	hip_rotation_l	knee_angle_l	knee_angle_l_beta	ankle_angle_l	subtalar_angle_l	mtp_angle_l	crank_angle_l	lumbar_extension	lumbar_bending	lumbar_rotation	arm_flex_r	arm_add_r	arm_rot_r	elbow_flex_r	pro_sup_r	wrist_flex_r	wrist_dev_r	arm_flex_l	arm_add_l	arm_rot_l	elbow_flex_l	pro_sup_l	wrist_flex_l	wrist_dev_l
      2.50000000	    -15.94039627	     -4.68579329	     -1.79881748	      0.06588672	      1.12269797	     -0.27993573	      0.00000000	      0.50000000	      0.00000000	      0.25000000	     86.53084600	      4.17224962	      5.21345179	    111.65080884	      1.94867423	      2.23412532	    -10.73507354	      0.00000000	      0.00000000	     38.16303780	    -10.28314588	     -5.99079233	     25.49423083	      0.44495827	    -17.03454905	      1.62362092	      0.00000000	      0.00000000	    -63.44291887	     -1.24275881	      8.21554808	     89.16118736	    -34.73942724	     34.07443248	     72.25899163	     46.55168424	      0.00000000	      0.00000000	     88.67121946	    -25.79910490	     35.18505214	     74.47059965	     36.24025389	      0.00000000	      0.00000000
      2.50500000	    -16.29075147	     -4.98176548	     -2.27219758	      0.06480858	      1.12253583	     -0.27980740	      0.00000000	      0.50000000	      0.00000000	      0.25000000	     87.11332949	      4.80441887	      5.03674227	    111.14059819	      1.93976937	      2.91400278	    -10.92294624	      0.00000000	      0.00000000	     38.66727409	    -10.70234101	     -5.61864949	     26.56542157	      0.46365407	    -16.88604290	      0.40853634	      0.00000000	      0.00000000	    -63.31978359	     -1.04132512	      8.64118125	     89.22617486	    -34.15601601	     33.56249419	     72.87711416	     46.38875481	      0.00000000	      0.00000000	     88.63986740	    -26.60036928	     35.11857570	     74.99970883	     36.47703949	      0.00000000	      0.00000000
      2.51000000	    -16.34220464	     -5.09718477	     -2.87132180	      0.06393436	      1.12280956	     -0.27960009	      0.00000000	      0.50000000	      0.00000000	      0.25000000	     87.29541174	      5.51141952	      5.03498089	    110.58889639	      1.93014036	      3.81569041	    -11.11085144	      0.00000000	      0.00000000	     38.82919574	    -11.04778598	     -5.56436754	     27.75341084	      0.48438840	    -16.62156643	     -0.95851344	      0.00000000	      0.00000000	    -63.42745617	     -1.13561666	      8.97077779	     89.31545030	    -33.83441019	     33.43363439	     73.19677020	     46.34244334	      0.00000000	      0.00000000	     88.67749718	    -27.01412083	     35.00272226	     75.09182443	     36.53651651	      0.00000000	      0.00000000
      2.51500000	    -16.67116131	     -5.42583931	     -3.40486274	      0.06281834	      1.12250076	     -0.27951352	      0.00000000	      0.50000000	      0.00000000	      0.25000000	     87.70625753	      6.20432487	      4.86802014	    109.93374703	      1.91870584	      4.79934800	    -11.02294037	      0.00000000	      0.00000000	     39.52692224	    -11.52528095	     -5.14131135	     29.26173496	      0.51071362	    -16.44311708	     -2.47607354	      0.00000000	      0.00000000	    -63.36385220	     -0.95431959	      9.21558358	     89.37509733	    -33.04319921	     33.05868380	     73.89062620	     46.00541121	      0.00000000	      0.00000000	     88.59612087	    -28.29392301	     34.96473372	     75.98364312	     37.26263423	      0.00000000	      0.00000000
      2.52000000	    -16.92761872	     -5.66937229	     -3.95032858	      0.06178112	      1.12225509	     -0.27943228	      0.00000000	      0.50000000	      0.00000000	      0.25000000	     87.95909034	      6.85055833	      4.74873370	    109.21004006	      1.90607478	      5.89774342	    -11.06047495	      0.00000000	      0.00000000	     40.21213389	    -11.92495372	     -4.78688772	     30.90708852	      0.53943046	    -16.36618137	     -4.14858558	      0.00000000	      0.00000000	    -63.32828761	     -0.86961157	      9.52952576	     89.42866466	    -32.44161092	     32.81302179	     74.38925580	     45.28308124	      0.00000000	      0.00000000	     88.59653824	    -29.17245108	     34.97422616	     76.44692246	     37.90163493	      0.00000000	      0.00000000
      2.52500000	    -17.07173629	     -5.82803678	     -4.50425052	      0.06077003	      1.12209086	     -0.27944101	      0.00000000	      0.50000000	      0.00000000	      0.25000000	     87.99462074	      7.50170694	      4.75552926	    108.40080523	      1.89195096	      7.07990283	    -11.18006285	      0.00000000	      0.00000000	     40.81738812	    -12.23568110	     -4.47897122	     32.60065330	      0.56898874	    -16.43060830	     -5.88454708	      0.00000000	      0.00000000	    -63.42316517	     -0.84897473	      9.89340402	     89.48190532	    -32.01373182	     32.62865529	     74.88345743	     45.08154365	      0.00000000	      0.00000000	     88.51541659	    -29.62567402	     34.33807682	     76.78758576	     38.22510342	      0.00000000	      0.00000000
      2.53000000	    -17.25719351	     -6.14557060	     -5.08242942	      0.05969901	      1.12172743	     -0.27943322	      0.00000000	      0.50000000	      0.00000000	      0.25000000	     87.97999244	      8.20065951	      4.60780478	    107.48875079	      1.87603261	      8.43096551	    -11.15812576	      0.00000000	      0.00000000	     41.62356801	    -12.69701713	     -4.03156726	     34.47855042	      0.60176423	    -16.60183660	     -7.53642615	      0.00000000	      0.00000000	    -63.48393628	     -0.75404424	     10.38711724	     89.51812010	    -31.41212601	     31.95869484	     75.40521260	     44.98594854	      0.00000000	      0.00000000	     88.33075492	    -29.94474413	     33.40171625	     77.01437916	     38.74725144	      0.00000000	      0.00000000
      2.53500000	    -17.43374120	     -6.15439589	     -5.51559272	      0.05873082	      1.12107577	     -0.27975605	      0.00000000	      0.50000000	      0.00000000	      0.25000000	     87.89536385	      8.63756356	      4.76116562	    106.56325450	      1.85987965	      9.86166822	    -11.16327194	      0.00000000	      0.00000000	     42.44656942	    -12.74170402	     -3.54092241	     36.32451937	      0.63398246	    -16.93494138	     -9.17857521	      0.00000000	      0.00000000	    -63.43469188	     -0.72827732	     10.57623056	     89.55435077	    -31.26498839	     32.23640056	     75.88887167	     44.84407962	      0.00000000	      0.00000000	     88.47773698	    -30.63876355	     33.83807696	     77.17835151	     38.91732994	      0.00000000	      0.00000000
      2.54000000	    -17.53423222	     -6.45665193	     -6.02574357	      0.05792826	      1.12044664	     -0.28000943	      0.00000000	      0.50000000	      0.00000000	      0.25000000	     87.60573980	      9.17314331	      4.57334022	    105.48889259	      1.84112850	     11.36741221	    -11.23070504	      0.00000000	      0.00000000	     43.32218760	    -13.13801978	     -3.02514945	     38.36375726	      0.66957388	    -17.40989400	    -10.84387801	      0.00000000	      0.00000000	    -63.61318155	     -0.62392323	     11.09002675	     89.58142222	    -30.94726235	     31.64209656	     76.78873262	     44.79186007	      0.00000000	      0.00000000	     88.21773851	    -31.02347626	     32.79228136	     77.79513763	     39.79581601	      0.00000000	      0.00000000
      2.54500000	    -17.70964663	     -6.40754385	     -6.26766634	      0.05707590	      1.11918520	     -0.28064787	      0.00000000	      0.50000000	      0.00000000	      0.25000000	     87.39105814	      9.33190445	      4.76034721	    104.49720193	      1.82382023	     13.12515732	    -11.04432546	      0.00000000	      0.00000000	     44.37764952	    -12.99043174	     -2.32228599	     40.47040135	      0.70634175	    -17.81310162	    -12.14792906	      0.00000000	      0.00000000	    -63.49316045	     -0.41619856	     10.98565831	     89.60452409	    -30.44325473	     31.92061092	     77.22878237	     43.84288908	      0.00000000	      0.00000000	     88.59736293	    -32.49683483	     34.42110232	     77.81048600	     40.51941709	      0.00000000	      0.00000000
      2.55000000	    -17.69247878	     -6.38468510	     -6.58604461	      0.05636941	      1.11827303	     -0.28113839	      0.00000000	      0.50000000	      0.00000000	      0.25000000	     86.88065041	      9.54841822	      4.77594699	    103.28635313	      1.80268693	     14.59654297	    -11.39517325	      0.00000000	      0.00000000	     45.17055471	    -12.86643360	     -1.59495081	     42.49410543	      0.74166205	    -18.45638966	    -13.73264814	      0.00000000	      0.00000000	    -63.66412434	     -0.38253028	     10.92008063	     89.63061046	    -30.10982209	     31.96838840	     77.71845551	     43.68595822	      0.00000000	      0.00000000	     88.50921500	    -33.01910972	     33.70754029	     78.16856652	     41.36194958	      0.00000000	      0.00000000
      2.55500000	    -17.67881462	     -6.46645015	     -6.88283021	      0.05573009	      1.11705998	     -0.28162593	      0.00000000	      0.50000000	      0.00000000	      0.25000000	     86.30860546	      9.77714193	      4.71589174	    102.03363961	      1.78082296	     16.23447158	    -11.53917918	      0.00000000	      0.00000000	     46.06717810	    -12.85830471	     -0.82369663	     44.69730502	      0.78011514	    -18.85444490	    -14.86449455	      0.00000000	      0.00000000	    -63.80613090	     -0.16444638	     10.80432272	     89.64684471	    -29.23350502	     32.59903284	     80.22595485	     30.48311285	      0.00000000	      0.00000000	     88.51428480	    -34.32266709	     33.87170898	     78.47961457	     42.90595959	      0.00000000	      0.00000000
